<?xml version="1.0" encoding="UTF-8" standalone="no"?>
<!-- Created with Inkscape (http://www.inkscape.org/) -->

<svg
   xmlns:dc="http://purl.org/dc/elements/1.1/"
   xmlns:cc="http://creativecommons.org/ns#"
   xmlns:rdf="http://www.w3.org/1999/02/22-rdf-syntax-ns#"
   xmlns:svg="http://www.w3.org/2000/svg"
   xmlns="http://www.w3.org/2000/svg"
   xmlns:sodipodi="http://sodipodi.sourceforge.net/DTD/sodipodi-0.dtd"
   xmlns:inkscape="http://www.inkscape.org/namespaces/inkscape"
   width="700"
   height="700"
   id="svg2"
   version="1.1"
   inkscape:version="0.48.4 r9939"
   sodipodi:docname="hackerspace1opaque.svg"
   inkscape:export-filename="/home/lab/Greg/hackerspace1.png"
   inkscape:export-xdpi="90"
   inkscape:export-ydpi="90">
  <defs
     id="defs4" />
  <sodipodi:namedview
     id="base"
     pagecolor="#ffffff"
     bordercolor="#666666"
     borderopacity="1.0"
     inkscape:pageopacity="1"
     inkscape:pageshadow="2"
     inkscape:zoom="0.81285714"
     inkscape:cx="350"
     inkscape:cy="350"
     inkscape:document-units="px"
     inkscape:current-layer="layer1"
     showgrid="false"
     inkscape:window-width="1280"
     inkscape:window-height="778"
     inkscape:window-x="0"
     inkscape:window-y="0"
     inkscape:window-maximized="1">
    <inkscape:grid
       type="xygrid"
       id="grid3818"
       empspacing="5"
       visible="true"
       enabled="true"
       snapvisiblegridlinesonly="true" />
  </sodipodi:namedview>
  <metadata
     id="metadata7">
    <rdf:RDF>
      <cc:Work
         rdf:about="">
        <dc:format>image/svg+xml</dc:format>
        <dc:type
           rdf:resource="http://purl.org/dc/dcmitype/StillImage" />
        <dc:title />
      </cc:Work>
    </rdf:RDF>
  </metadata>
  <g
     inkscape:label="Layer 1"
     inkscape:groupmode="layer"
     id="layer1"
     transform="translate(0,-352.36218)">
    <g
       id="g4029">
      <g
         id="text3004"
         style="font-size:40px;font-style:normal;font-variant:normal;font-weight:normal;font-stretch:normal;line-height:125%;letter-spacing:0px;word-spacing:0px;fill:#000000;fill-opacity:1;stroke:none;font-family:VSV-Rotula;-inkscape-font-specification:VSV-Rotula">
        <path
           id="path3896"
           style="font-size:90px;text-align:center;text-anchor:middle;font-family:VSV-Rotula;-inkscape-font-specification:VSV-Rotula"
           d="m 234.34993,581.97511 18.63,0 0,8.28 0,57.33 -9.72,0 0,-57.33 -8.91,0 -0.18,0 -8.55,0 -0.63,0 c 0,-0.18 -0.17999,-3.33 2.7,-6.12 0,0 2.25001,-2.16 5.85,-2.16 l 0.81,0 m 21.69,0 15.21,0 0,8.28 -15.21,0 0,-8.28" />
        <path
           id="path3898"
           style="font-size:90px;text-align:center;text-anchor:middle;font-family:VSV-Rotula;-inkscape-font-specification:VSV-Rotula"
           d="m 282.74603,613.47511 c -2.07,0 -3.78,-1.71 -3.78,-3.78 0,-0.72 0.27,-1.35 0.54,-1.98 0.09,-0.09 0.09,-0.09 0.09,-0.09 0,-0.09 0,-0.09 0.09,-0.09 3.14999,-4.59 7.56,-7.02 13.41,-7.65 l 0,7.11 c -2.88,0.63 -5.31,2.16 -7.2,4.77 -0.63,1.08 -1.8,1.71 -3.15,1.71 m 29.97,27.09 c 0,2.16 0.36,4.41 0.9,6.57 l 0,0.54 -8.64,0 -0.9,-5.4 c -2.43,2.25 -5.04,3.87 -7.83,4.86 l 0,-6.75 c 2.43,-0.99 5.13,-2.79 7.92,-5.31 l 0,-11.61 c -12.77999,2.25 -18.99,5.58001 -18.99,11.61 0,3.87 2.52,6.3 6.66,6.3 0.36,0 0.81,-0.09 1.26,-0.09 l 0,6.66 c -1.17,0.18 -2.34,0.36 -3.51,0.36 -7.91999,0 -12.87,-5.04001 -12.87,-12.78 0,-10.34999 9.00002,-15.75 27.63,-18.81 l 0,-3.6 c 0,-3.87 -3.15001,-6.3 -8.1,-6.39 l 0,-7.02 c 0.09,0 0.27,0 0.45,0 9.89999,0 16.02,5.22001 16.02,13.95 l 0,26.91" />
        <path
           id="path3900"
           style="font-size:90px;text-align:center;text-anchor:middle;font-family:VSV-Rotula;-inkscape-font-specification:VSV-Rotula"
           d="m 334.47915,600.42511 -0.09,47.25 -8.46,0 0,-39.69 c -0.36,-2.79 2.43,-5.58 2.43,-5.58 0,0 2.16001,-1.98 5.4,-1.98 l 0.72,0 m 0.27,-18.27 0,9 -8.55,0 0,-1.44 c -0.36,-2.79 2.43,-5.58 2.43,-5.58 0,0 2.25001,-1.98 5.4,-1.98 l 0.72,0" />
        <path
           id="path3902"
           style="font-size:90px;text-align:center;text-anchor:middle;font-family:VSV-Rotula;-inkscape-font-specification:VSV-Rotula"
           d="m 356.70915,664.77511 -8.46,0 0,-56.97 c -0.45,-2.7 2.34,-5.49 2.34,-5.49 0,0 2.25001,-1.98 5.4,-1.98 l 0.72,0 0,64.44 m 11.61,-65.16 c 11.69999,0 19.17,9.09002 19.17,24.66 0,15.47998 -7.38001,24.21 -19.26,24.21 -3.23999,0 -6.12,-0.9 -8.46,-2.61 l 0,-7.11 c 2.25,1.8 4.77001,2.7 7.38,2.7 7.29,0 11.61,-5.94001 11.61,-17.01 0,-11.51999 -4.23,-17.55 -11.88,-17.55 -2.60999,0 -4.95,0.9 -7.11,2.61 l 0,-7.2 c 2.34,-1.71 5.13001,-2.7 8.55,-2.7" />
        <path
           id="path3904"
           style="font-size:90px;text-align:center;text-anchor:middle;font-family:VSV-Rotula;-inkscape-font-specification:VSV-Rotula"
           d="m 424.84056,633.81511 6.3,3.87 c -3.6,6.47999 -9.18001,10.08 -16.56,10.53 l 0,-7.11 c 4.40999,-0.36 7.83,-2.79 10.26,-7.29 m -13.23,7.2 0,7.2 c -11.87999,-0.63 -18.45,-8.82002 -18.45,-23.76 0,-15.56998 6.84001,-24.3 18.45,-24.75 l 0,6.75 c -5.85,0.36 -9.45,4.68001 -9.72,12.51 l 20.34,0 c -0.18,-6.92999 -3.06001,-11.16 -7.65,-12.24 l 0,-6.93 c 9.98999,0.99 16.29,9.36001 16.29,23.22 0,0.81 -0.09,1.62 -0.09,2.43 l -28.98,0 c 0,0.27 0,0.54 0,0.9 0,8.63999 3.51001,13.77 9.81,14.67" />
        <path
           id="path3906"
           style="font-size:90px;text-align:center;text-anchor:middle;font-family:VSV-Rotula;-inkscape-font-specification:VSV-Rotula"
           d="m 449.44009,600.42511 -0.09,47.25 -8.46,0 0,-39.69 c -0.36,-2.79 2.43,-5.58 2.43,-5.58 0,0 2.16,-1.98 5.4,-1.98 l 0.72,0 m 0.27,-18.27 0,9 -8.55,0 0,-1.44 c -0.36,-2.79 2.43,-5.58 2.43,-5.58 0,0 2.25,-1.98 5.4,-1.98 l 0.72,0" />
        <path
           id="path3908"
           style="font-size:90px;text-align:center;text-anchor:middle;font-family:VSV-Rotula;-inkscape-font-specification:VSV-Rotula"
           d="m 141.0565,694.92511 9.36,0 0,65.25 -9.36,0 0,-29.79 -26.28,0 0,-8.46 26.28,0 0,-27 m -29.34,0 0,65.25 -2.79,0 -6.57,0 0,-57.06 c 0,-3.15 2.61,-6.03 2.61,-6.03 0,0 2.34,-2.16 5.94,-2.16 l 0.72,0 0.09,0" />
        <path
           id="path3910"
           style="font-size:90px;text-align:center;text-anchor:middle;font-family:VSV-Rotula;-inkscape-font-specification:VSV-Rotula"
           d="m 168.31243,725.97511 c -2.06999,0 -3.78,-1.71 -3.78,-3.78 0,-0.72 0.27,-1.35 0.54,-1.98 0.09,-0.09 0.09,-0.09 0.09,-0.09 0,-0.09 0,-0.09 0.09,-0.09 3.15,-4.59 7.56001,-7.02 13.41,-7.65 l 0,7.11 c -2.87999,0.63 -5.31,2.16 -7.2,4.77 -0.63,1.08 -1.8,1.71 -3.15,1.71 m 29.97,27.09 c 0,2.16 0.36,4.41 0.9,6.57 l 0,0.54 -8.64,0 -0.9,-5.4 c -2.42999,2.25 -5.04,3.87 -7.83,4.86 l 0,-6.75 c 2.43,-0.99 5.13001,-2.79 7.92,-5.31 l 0,-11.61 c -12.77998,2.25 -18.99,5.58001 -18.99,11.61 0,3.87 2.52001,6.3 6.66,6.3 0.36,0 0.81,-0.09 1.26,-0.09 l 0,6.66 c -1.16999,0.18 -2.34,0.36 -3.51,0.36 -7.91999,0 -12.87,-5.04001 -12.87,-12.78 0,-10.34999 9.00002,-15.75 27.63,-18.81 l 0,-3.6 c 0,-3.87 -3.15,-6.3 -8.1,-6.39 l 0,-7.02 c 0.09,0 0.27,0 0.45,0 9.89999,0 16.02,5.22001 16.02,13.95 l 0,26.91" />
        <path
           id="path3912"
           style="font-size:90px;text-align:center;text-anchor:middle;font-family:VSV-Rotula;-inkscape-font-specification:VSV-Rotula"
           d="m 228.14556,719.67511 0,-7.2 c 6.20999,0.36 10.89,3.06 14.04,7.83 0.09,0.18 0.18,0.36 0.36,0.54 0,0.09 0.09,0.18 0.09,0.27 0.18,0.54 0.27,1.08 0.27,1.62 0,2.25 -1.8,4.05 -3.96,4.05 -1.44,0 -2.7,-0.81 -3.42,-1.98 0,0 0,0 -0.09,0 -0.09,-0.18 -0.18,-0.36 -0.27,-0.45 -1.62,-2.79 -4.05,-4.32 -7.02,-4.68 m -2.97,34.11 0,7.29 c -11.42999,-0.63 -17.73,-9.00001 -17.73,-23.76 0,-15.20998 6.93001,-24.21 17.73,-24.84 l 0,7.29 c -5.85,0.99 -9.09,6.75001 -9.09,17.01 0,10.52999 2.97001,16.11 9.09,17.01 m 13.14,-8.28 6.84,3.6 c -3.51,7.64999 -9.09001,11.61 -17.01,11.97 l 0,-7.2 c 4.22999,-0.45 7.83,-3.33001 10.17,-8.37" />
        <path
           id="path3914"
           style="font-size:90px;text-align:center;text-anchor:middle;font-family:VSV-Rotula;-inkscape-font-specification:VSV-Rotula"
           d="m 262.1304,694.65511 -0.09,65.52 -8.46,0 0,-57.96 c -0.36,-2.79 2.43,-5.58 2.43,-5.58 0,0 2.16001,-1.98 5.4,-1.98 l 0.72,0 m 13.23,35.19 16.02,30.33 -9.36,0 -12.51,-23.49 -3.96,4.41 0,-10.26 14.94,-18 9.45,0 -14.58,17.01" />
        <path
           id="path3916"
           style="font-size:90px;text-align:center;text-anchor:middle;font-family:VSV-Rotula;-inkscape-font-specification:VSV-Rotula"
           d="m 326.40306,746.31511 6.3,3.87 c -3.6,6.47999 -9.18001,10.08 -16.56,10.53 l 0,-7.11 c 4.40999,-0.36 7.83,-2.79 10.26,-7.29 m -13.23,7.2 0,7.2 c -11.87999,-0.63 -18.45,-8.82002 -18.45,-23.76 0,-15.56998 6.84001,-24.3 18.45,-24.75 l 0,6.75 c -5.85,0.36 -9.45,4.68001 -9.72,12.51 l 20.34,0 c -0.18,-6.92999 -3.06001,-11.16 -7.65,-12.24 l 0,-6.93 c 9.98999,0.99 16.29,9.36001 16.29,23.22 0,0.81 -0.09,1.62 -0.09,2.43 l -28.98,0 c 0,0.27 0,0.54 0,0.9 0,8.63999 3.51001,13.77 9.81,14.67" />
        <path
           id="path3918"
           style="font-size:90px;text-align:center;text-anchor:middle;font-family:VSV-Rotula;-inkscape-font-specification:VSV-Rotula"
           d="m 362.97259,712.83511 c 0.45,0 0.9,0 1.44,0.09 l 0,8.73 c -0.27,0 -0.45,0 -0.72,0 -4.05,0 -7.65,2.16 -10.35,6.3 l 0,-10.08 c 2.61,-3.42 5.76,-5.04 9.63,-5.04 m -12.69,0.45 0,46.8 0,0.09 -8.37,0 0,-39.42 c -0.45,-2.7 2.34,-5.49 2.34,-5.49 0,0 2.16,-1.98 5.31,-1.98 l 0.72,0" />
        <path
           id="path3920"
           style="font-size:90px;text-align:center;text-anchor:middle;font-family:VSV-Rotula;-inkscape-font-specification:VSV-Rotula"
           d="m 385.9254,718.95511 0,-7.02 c 4.41,0.36 8.10001,1.8 11.43,4.59 0.09,0 0.09,0.09 0.18,0.18 0.72,0.63 1.17,1.62 1.17,2.7 0,2.07 -1.71,3.69 -3.78,3.69 -0.9,0 -1.71,-0.27 -2.34,-0.81 -0.09,-0.09 -0.09,-0.09 -0.18,-0.18 -2.07,-1.71 -4.23,-2.79 -6.48,-3.15 m 0.18,12.6 c 10.16999,3.78 15.75,7.20001 15.75,15.21 0,8.18999 -6.30001,13.86 -15.93,14.13 l 0,-6.93 c 4.59,-0.18 7.47,-2.88 7.47,-6.48 0,-4.14 -2.88,-5.58 -7.47,-7.29 l 0,-8.64 c 0.09,0 0.09,0 0.18,0 m -4.23,7.11 c -8.72999,-3.42 -12.96,-6.75001 -12.96,-13.68 0,-7.19999 5.49001,-12.6 13.95,-13.05 l 0,7.02 c -3.41999,0.45 -5.49,2.52 -5.49,5.4 0,2.88 1.98001,4.41 5.49,5.94 l 0,8.73 c -0.27,-0.09 -0.63,-0.27 -0.99,-0.36 m 0.99,15.03 0,7.11 c -6.47999,-0.54 -12.06,-3.69001 -15.84,-9.09 l 6.21,-4.95 c 2.97,3.87 6.12001,6.21 9.63,6.93" />
        <path
           id="path3922"
           style="font-size:90px;text-align:center;text-anchor:middle;font-family:VSV-Rotula;-inkscape-font-specification:VSV-Rotula"
           d="m 419.81462,777.27511 -8.46,0 0,-56.97 c -0.45,-2.7 2.34,-5.49 2.34,-5.49 0,0 2.25,-1.98 5.4,-1.98 l 0.72,0 0,64.44 m 11.61,-65.16 c 11.69999,0 19.17,9.09002 19.17,24.66 0,15.47998 -7.38001,24.21 -19.26,24.21 -3.24,0 -6.12,-0.9 -8.46,-2.61 l 0,-7.11 c 2.25,1.8 4.77,2.7 7.38,2.7 7.28999,0 11.61,-5.94001 11.61,-17.01 0,-11.51999 -4.23001,-17.55 -11.88,-17.55 -2.61,0 -4.95,0.9 -7.11,2.61 l 0,-7.2 c 2.34,-1.71 5.13001,-2.7 8.55,-2.7" />
        <path
           id="path3924"
           style="font-size:90px;text-align:center;text-anchor:middle;font-family:VSV-Rotula;-inkscape-font-specification:VSV-Rotula"
           d="m 462.74603,725.97511 c -2.07,0 -3.78,-1.71 -3.78,-3.78 0,-0.72 0.27,-1.35 0.54,-1.98 0.09,-0.09 0.09,-0.09 0.09,-0.09 0,-0.09 0,-0.09 0.09,-0.09 3.14999,-4.59 7.56,-7.02 13.41,-7.65 l 0,7.11 c -2.88,0.63 -5.31,2.16 -7.2,4.77 -0.63,1.08 -1.8,1.71 -3.15,1.71 m 29.97,27.09 c 0,2.16 0.36,4.41 0.9,6.57 l 0,0.54 -8.64,0 -0.9,-5.4 c -2.43,2.25 -5.04,3.87 -7.83,4.86 l 0,-6.75 c 2.43,-0.99 5.13,-2.79 7.92,-5.31 l 0,-11.61 c -12.77999,2.25 -18.99,5.58001 -18.99,11.61 0,3.87 2.52,6.3 6.66,6.3 0.36,0 0.81,-0.09 1.26,-0.09 l 0,6.66 c -1.17,0.18 -2.34,0.36 -3.51,0.36 -7.91999,0 -12.87,-5.04001 -12.87,-12.78 0,-10.34999 9.00002,-15.75 27.63,-18.81 l 0,-3.6 c 0,-3.87 -3.15001,-6.3 -8.1,-6.39 l 0,-7.02 c 0.09,0 0.27,0 0.45,0 9.89999,0 16.02,5.22001 16.02,13.95 l 0,26.91" />
        <path
           id="path3926"
           style="font-size:90px;text-align:center;text-anchor:middle;font-family:VSV-Rotula;-inkscape-font-specification:VSV-Rotula"
           d="m 522.57915,719.67511 0,-7.2 c 6.21,0.36 10.89001,3.06 14.04,7.83 0.09,0.18 0.18,0.36 0.36,0.54 0,0.09 0.09,0.18 0.09,0.27 0.18,0.54 0.27,1.08 0.27,1.62 0,2.25 -1.8,4.05 -3.96,4.05 -1.44,0 -2.7,-0.81 -3.42,-1.98 0,0 0,0 -0.09,0 -0.09,-0.18 -0.18,-0.36 -0.27,-0.45 -1.62,-2.79 -4.05,-4.32 -7.02,-4.68 m -2.97,34.11 0,7.29 c -11.42999,-0.63 -17.73,-9.00001 -17.73,-23.76 0,-15.20998 6.93001,-24.21 17.73,-24.84 l 0,7.29 c -5.84999,0.99 -9.09,6.75001 -9.09,17.01 0,10.52999 2.97001,16.11 9.09,17.01 m 13.14,-8.28 6.84,3.6 c -3.50999,7.64999 -9.09001,11.61 -17.01,11.97 l 0,-7.2 c 4.23,-0.45 7.83001,-3.33001 10.17,-8.37" />
        <path
           id="path3928"
           style="font-size:90px;text-align:center;text-anchor:middle;font-family:VSV-Rotula;-inkscape-font-specification:VSV-Rotula"
           d="m 576.364,746.31511 6.3,3.87 c -3.6,6.47999 -9.18001,10.08 -16.56,10.53 l 0,-7.11 c 4.40999,-0.36 7.83,-2.79 10.26,-7.29 m -13.23,7.2 0,7.2 c -11.87999,-0.63 -18.45,-8.82002 -18.45,-23.76 0,-15.56998 6.84001,-24.3 18.45,-24.75 l 0,6.75 c -5.85,0.36 -9.45,4.68001 -9.72,12.51 l 20.34,0 c -0.18,-6.92999 -3.06001,-11.16 -7.65,-12.24 l 0,-6.93 c 9.98999,0.99 16.29,9.36001 16.29,23.22 0,0.81 -0.09,1.62 -0.09,2.43 l -28.98,0 c 0,0.27 0,0.54 0,0.9 0,8.63999 3.51,13.77 9.81,14.67" />
      </g>
      <path
         d="m 640,490 0,70 -310,0 m 250,-240 60,0 0,170 -30,0 m -450,-310 0,140 420,0 0,-50"
         style="fill:none;stroke:#000000;stroke-width:3;stroke-linecap:butt;stroke-linejoin:miter;stroke-opacity:1;stroke-miterlimit:4;stroke-dasharray:24,12;stroke-dashoffset:0"
         transform="translate(0,352.36218)"
         id="path3824" />
      <g
         id="g4015">
        <rect
           style="fill:#9bdaef;fill-opacity:1;stroke:none"
           id="rect3016"
           width="160.61508"
           height="88.18084"
           x="78.732887"
           y="442.9696"
           ry="22.04521"
           rx="17.321236" />
        <g
           transform="translate(-385.83306,89.870321)"
           style="display:inline"
           id="g2428">
          <g
             transform="matrix(1.41421,1.41421,-1.41421,1.41421,166.745,-193.528)"
             id="g2550"
             style="display:inline">
            <path
               inkscape:connector-curvature="0"
               style="fill:none;stroke:#000000;stroke-width:1px;stroke-linecap:butt;stroke-linejoin:miter;stroke-opacity:1"
               d="m 336.61417,65.43304 0,7.086615"
               id="path2542" />
            <path
               inkscape:connector-curvature="0"
               style="fill:none;stroke:#000000;stroke-width:1px;stroke-linecap:butt;stroke-linejoin:miter;stroke-opacity:1"
               d="m 335.31387,68.976347 1.3003,-3.543307 1.21446,3.543307"
               id="path2548" />
          </g>
          <g
             transform="matrix(1.41421,1.41421,-1.41421,1.41421,175.932,-193.528)"
             id="g2554"
             style="display:inline">
            <path
               inkscape:connector-curvature="0"
               style="fill:none;stroke:#000000;stroke-width:1px;stroke-linecap:butt;stroke-linejoin:miter;stroke-opacity:1"
               d="m 336.61417,65.43304 0,7.086615"
               id="path2556" />
            <path
               inkscape:connector-curvature="0"
               style="fill:none;stroke:#000000;stroke-width:1px;stroke-linecap:butt;stroke-linejoin:miter;stroke-opacity:1"
               d="m 335.31387,68.976347 1.3003,-3.543307 1.21446,3.543307"
               id="path2558" />
          </g>
          <path
             inkscape:connector-curvature="0"
             sodipodi:nodetypes="cc"
             id="path6801"
             d="m 509.8346,398.08466 21.25984,0"
             style="fill:none;stroke:#000000;stroke-width:3.54399967;stroke-linecap:square;stroke-linejoin:miter;stroke-miterlimit:4;stroke-opacity:1;display:inline" />
          <path
             inkscape:connector-curvature="0"
             sodipodi:nodetypes="cc"
             id="path6803"
             d="m 559.4409,398.08466 14.17322,0"
             style="fill:none;stroke:#000000;stroke-width:3.54330492;stroke-linecap:square;stroke-linejoin:miter;stroke-miterlimit:4;stroke-opacity:1;display:inline" />
          <path
             inkscape:connector-curvature="0"
             sodipodi:nodetypes="cccc"
             id="path6805"
             d="m 559.4409,398.08466 -28.34646,14.17322 0,-28.34644 28.34646,14.17322 z"
             style="fill:none;stroke:#000000;stroke-width:3.5433073;stroke-linecap:square;stroke-miterlimit:4;stroke-opacity:1;stroke-dashoffset:0;display:inline" />
          <path
             inkscape:connector-curvature="0"
             sodipodi:nodetypes="cc"
             id="path6807"
             d="m 559.4409,383.91144 0,28.34646"
             style="fill:none;stroke:#000000;stroke-width:3.5433085;stroke-linecap:square;stroke-linejoin:miter;stroke-miterlimit:4;stroke-opacity:1;display:inline" />
        </g>
      </g>
      <g
         id="g4005">
        <rect
           style="fill:#9bdaef;fill-opacity:1;stroke:none"
           id="rect3016-28"
           width="160.61508"
           height="88.18084"
           x="486.56927"
           y="534.29974"
           ry="22.04521"
           rx="17.321236" />
        <g
           style="font-size:40px;font-style:normal;font-variant:normal;font-weight:normal;font-stretch:normal;line-height:125%;letter-spacing:0px;word-spacing:0px;fill:#000000;fill-opacity:1;stroke:none;font-family:VSV-Rotula;-inkscape-font-specification:VSV-Rotula"
           id="text5563">
          <path
             d="m 501.29065,587.66711 6.13281,0 0,-22.28515 -6.60156,1.48437 0,-3.59375 6.5625,-1.44531 3.94531,0 0,25.83984 6.05469,0 0,3.32032 -16.09375,0 0,-3.32032"
             style="font-family:Monospace;-inkscape-font-specification:Monospace"
             id="path3931" />
          <path
             d="m 529.51331,576.33899 c -1e-5,-0.71613 0.24738,-1.33462 0.74218,-1.85547 0.5078,-0.52082 1.11327,-0.78123 1.81641,-0.78125 0.72915,2e-5 1.35415,0.26043 1.875,0.78125 0.52082,0.52085 0.78123,1.13934 0.78125,1.85547 -2e-5,0.72918 -0.26043,1.34767 -0.78125,1.85547 -0.50783,0.50782 -1.13283,0.76173 -1.875,0.76172 -0.72918,10e-6 -1.34116,-0.24739 -1.83594,-0.74219 -0.48178,-0.49478 -0.72266,-1.11978 -0.72265,-1.875 m 2.59765,-11.91406 c -1.83595,2e-5 -3.20964,0.98961 -4.12109,2.96875 -0.89845,1.97919 -1.34766,4.9935 -1.34766,9.04297 0,4.03646 0.44921,7.04427 1.34766,9.02343 0.91145,1.97917 2.28514,2.96876 4.12109,2.96875 1.84895,1e-5 3.22264,-0.98958 4.1211,-2.96875 0.91144,-1.97916 1.36717,-4.98697 1.36718,-9.02343 -10e-6,-4.04947 -0.45574,-7.06378 -1.36718,-9.04297 -0.89846,-1.97914 -2.27215,-2.96873 -4.1211,-2.96875 m 0,-3.125 c 3.11197,3e-5 5.46222,1.27607 7.05078,3.82812 1.60154,2.55211 2.40233,6.32164 2.40235,11.3086 -2e-5,4.97396 -0.80081,8.73698 -2.40235,11.28906 -1.58856,2.55208 -3.93881,3.82812 -7.05078,3.82812 -3.11199,0 -5.46224,-1.27604 -7.05078,-3.82812 -1.58854,-2.55208 -2.38281,-6.3151 -2.38281,-11.28906 0,-4.98696 0.79427,-8.75649 2.38281,-11.3086 1.58854,-2.55205 3.93879,-3.82809 7.05078,-3.82812"
             style="font-family:Monospace;-inkscape-font-specification:Monospace"
             id="path3933" />
          <path
             d="m 549.41565,587.66711 6.13281,0 0,-22.28515 -6.60156,1.48437 0,-3.59375 6.5625,-1.44531 3.94531,0 0,25.83984 6.05469,0 0,3.32032 -16.09375,0 0,-3.32032"
             style="font-family:Monospace;-inkscape-font-specification:Monospace"
             id="path3935" />
          <path
             d="m 577.63831,576.33899 c -1e-5,-0.71613 0.24738,-1.33462 0.74218,-1.85547 0.5078,-0.52082 1.11327,-0.78123 1.81641,-0.78125 0.72915,2e-5 1.35415,0.26043 1.875,0.78125 0.52082,0.52085 0.78123,1.13934 0.78125,1.85547 -2e-5,0.72918 -0.26043,1.34767 -0.78125,1.85547 -0.50783,0.50782 -1.13283,0.76173 -1.875,0.76172 -0.72918,10e-6 -1.34116,-0.24739 -1.83594,-0.74219 -0.48178,-0.49478 -0.72266,-1.11978 -0.72265,-1.875 m 2.59765,-11.91406 c -1.83595,2e-5 -3.20964,0.98961 -4.12109,2.96875 -0.89845,1.97919 -1.34766,4.9935 -1.34766,9.04297 0,4.03646 0.44921,7.04427 1.34766,9.02343 0.91145,1.97917 2.28514,2.96876 4.12109,2.96875 1.84895,1e-5 3.22264,-0.98958 4.1211,-2.96875 0.91144,-1.97916 1.36717,-4.98697 1.36718,-9.02343 -10e-6,-4.04947 -0.45574,-7.06378 -1.36718,-9.04297 -0.89846,-1.97914 -2.27215,-2.96873 -4.1211,-2.96875 m 0,-3.125 c 3.11197,3e-5 5.46222,1.27607 7.05078,3.82812 1.60154,2.55211 2.40233,6.32164 2.40235,11.3086 -2e-5,4.97396 -0.80081,8.73698 -2.40235,11.28906 -1.58856,2.55208 -3.93881,3.82812 -7.05078,3.82812 -3.11199,0 -5.46224,-1.27604 -7.05078,-3.82812 -1.58854,-2.55208 -2.38281,-6.3151 -2.38281,-11.28906 0,-4.98696 0.79427,-8.75649 2.38281,-11.3086 1.58854,-2.55205 3.93879,-3.82809 7.05078,-3.82812"
             style="font-family:Monospace;-inkscape-font-specification:Monospace"
             id="path3937" />
          <path
             d="m 597.54065,587.66711 6.13281,0 0,-22.28515 -6.60156,1.48437 0,-3.59375 6.5625,-1.44531 3.94531,0 0,25.83984 6.05469,0 0,3.32032 -16.09375,0 0,-3.32032"
             style="font-family:Monospace;-inkscape-font-specification:Monospace"
             id="path3939" />
          <path
             d="m 621.60315,587.66711 6.13281,0 0,-22.28515 -6.60156,1.48437 0,-3.59375 6.5625,-1.44531 3.94531,0 0,25.83984 6.05469,0 0,3.32032 -16.09375,0 0,-3.32032"
             style="font-family:Monospace;-inkscape-font-specification:Monospace"
             id="path3941" />
        </g>
      </g>
      <g
         id="g3996">
        <rect
           style="fill:#9bdaef;fill-opacity:1;stroke:none"
           id="rect3016-2"
           width="160.61508"
           height="88.18084"
           x="448.7775"
           y="798.84229"
           ry="22.04521"
           rx="17.321236" />
        <g
           style="font-size:40px;font-style:normal;font-variant:normal;font-weight:normal;font-stretch:normal;line-height:125%;letter-spacing:0px;word-spacing:0px;fill:#000000;fill-opacity:1;stroke:none;font-family:VSV-Rotula;-inkscape-font-specification:VSV-Rotula"
           id="text5586">
          <path
             d="m 494.49936,841.97522 0,13.55469 -3.61328,0 0,-13.55469 c -2e-5,-1.96613 -0.34507,-3.41144 -1.03516,-4.33594 -0.69012,-0.92446 -1.77085,-1.3867 -3.24219,-1.38672 -1.67969,2e-5 -2.97527,0.59898 -3.88671,1.79688 -0.89845,1.18491 -1.34767,2.89064 -1.34766,5.11719 l 0,12.36328 -3.59375,0 0,-30.39063 3.59375,0 0,11.79688 c 0.63801,-1.24998 1.5039,-2.19399 2.59766,-2.83203 1.09373,-0.65102 2.38931,-0.97654 3.88671,-0.97657 2.22655,3e-5 3.88671,0.7357 4.98047,2.20703 1.10675,1.45836 1.66014,3.6719 1.66016,6.64063"
             style="font-family:Monospace;-inkscape-font-specification:Monospace"
             id="path3944" />
          <path
             d="m 510.0267,827.44397 0,6.21094 8.16407,0 0,2.79297 -8.16407,0 0,11.875 c -1e-5,1.61458 0.30598,2.74089 0.91797,3.3789 0.61197,0.63803 1.67967,0.95704 3.20313,0.95703 l 4.04297,0 0,2.8711 -4.39454,0 c -2.69532,0 -4.59636,-0.54037 -5.70312,-1.6211 -1.10678,-1.08072 -1.66017,-2.9427 -1.66016,-5.58593 l 0,-11.875 -5.83984,0 0,-2.79297 5.83984,0 0,-6.21094 3.59375,0"
             style="font-family:Monospace;-inkscape-font-specification:Monospace"
             id="path3946" />
          <path
             d="m 534.0892,827.44397 0,6.21094 8.16407,0 0,2.79297 -8.16407,0 0,11.875 c -10e-6,1.61458 0.30598,2.74089 0.91797,3.3789 0.61197,0.63803 1.67967,0.95704 3.20313,0.95703 l 4.04297,0 0,2.8711 -4.39454,0 c -2.69532,0 -4.59636,-0.54037 -5.70312,-1.6211 -1.10678,-1.08072 -1.66017,-2.9427 -1.66016,-5.58593 l 0,-11.875 -5.83984,0 0,-2.79297 5.83984,0 0,-6.21094 3.59375,0"
             style="font-family:Monospace;-inkscape-font-specification:Monospace"
             id="path3948" />
          <path
             d="m 553.48373,852.776 0,11.07422 -3.61328,0 0,-30.19531 3.61328,0 0,2.79297 c 0.59895,-1.08071 1.39322,-1.90102 2.38282,-2.46094 1.00259,-0.5729 2.15493,-0.85935 3.45703,-0.85938 2.64321,3e-5 4.71352,1.02216 6.21094,3.06641 1.51039,2.04429 2.2656,4.87632 2.26562,8.49609 -2e-5,3.5547 -0.75523,6.34766 -2.26562,8.37891 -1.51044,2.01823 -3.58075,3.02734 -6.21094,3.02734 -1.32814,0 -2.4935,-0.27994 -3.4961,-0.83984 -0.98959,-0.57292 -1.77084,-1.39974 -2.34375,-2.48047 m 10.54688,-8.16406 c -2e-5,-2.78645 -0.44273,-4.88931 -1.32813,-6.3086 -0.87241,-1.41925 -2.17449,-2.12888 -3.90625,-2.1289 -1.7448,2e-5 -3.06641,0.71616 -3.96484,2.14844 -0.89844,1.41928 -1.34766,3.51563 -1.34766,6.28906 0,2.76042 0.44922,4.85678 1.34766,6.28906 0.89843,1.4323 2.22004,2.14844 3.96484,2.14844 1.73176,0 3.03384,-0.70963 3.90625,-2.12891 0.8854,-1.41926 1.32811,-3.52213 1.32813,-6.30859"
             style="font-family:Monospace;-inkscape-font-specification:Monospace"
             id="path3950" />
          <path
             d="m 579.7728,834.76819 4.92187,0 0,5.91797 -4.92187,0 0,-5.91797 m 0,14.80469 4.92187,0 0,5.95703 -4.92187,0 0,-5.95703"
             style="font-family:Monospace;-inkscape-font-specification:Monospace"
             id="path3952" />
        </g>
      </g>
      <g
         id="g3974">
        <rect
           style="fill:#9bdaef;fill-opacity:1;stroke:none"
           id="rect3016-9"
           width="160.61508"
           height="88.18084"
           x="166.91373"
           y="860.25385"
           ry="22.04521"
           rx="17.321236" />
        <g
           id="g3954">
          <path
             id="path5674"
             d="m 207.01545,864.92577 0,78.83696 78.83703,0 0,-78.83696 -78.83703,0 z"
             style="fill:#ffffff;stroke:none"
             inkscape:connector-curvature="0" />
          <path
             id="path5676"
             d="m 209.93533,867.84567 0,20.43922 20.43924,0 0,-20.43922 -20.43924,0 m 23.35912,0 0,5.83978 2.91989,0 0,2.91988 2.9199,0 0,-2.91988 -2.9199,0 0,-2.91989 5.83979,0 0,2.91989 2.91987,0 0,-5.83978 -11.67955,0 m 14.59947,0 0,2.91989 2.91988,0 0,2.91989 -2.91988,0 0,2.91988 -5.83979,0 0,5.83977 -5.83979,0 0,-2.91988 -2.91989,0 0,14.59946 -2.91988,0 0,-2.91989 -5.83978,0 0,2.91989 -5.83978,0 0,-2.91989 -8.75968,0 0,5.83977 2.91988,0 0,5.83978 -2.91988,0 0,2.91989 2.91988,0 0,-2.91989 2.91991,0 0,-2.91989 2.91989,0 0,-2.91989 2.91988,0 0,8.75967 -5.83977,0 0,2.9199 -5.83979,0 0,2.91989 5.83979,0 0,-2.91989 2.91989,0 0,5.83978 -8.75968,0 0,2.91988 11.67956,0 0,-8.75966 5.83979,0 0,2.91989 2.9199,0 0,-2.91989 2.91987,0 0,11.67957 2.9199,0 0,-2.91991 8.75965,0 0,5.83979 -2.91987,0 0,-2.91988 -2.91989,0 0,2.91988 2.91989,0 0,2.91988 -2.91989,0 0,5.83975 -5.83979,0 0,8.7597 17.51935,0 0,-5.83978 -2.91988,0 0,2.9199 -5.83979,0 0,-2.9199 2.91987,0 0,-2.91992 -2.91987,0 0,-5.83975 5.83979,0 0,5.83975 5.83976,0 0,5.83982 2.9199,0 0,2.91988 2.9199,0 0,-2.91988 2.91986,0 0,2.91988 11.67958,0 0,-2.91988 -11.67958,0 0,-8.75967 11.67958,0 0,5.83977 8.75967,0 0,-2.91992 -2.91989,0 0,-2.91985 2.91989,0 0,-8.75966 -2.91989,0 0,-2.91991 2.91989,0 0,-2.91988 -2.91989,0 0,2.91988 -2.91989,0 0,2.91991 -2.91989,0 0,-8.75968 2.91989,0 0,-2.91989 -8.75967,0 0,-5.83979 -2.91989,0 0,-5.83978 2.91989,0 0,2.91989 2.91988,0 0,2.91989 2.9199,0 0,-2.91989 2.91989,0 0,5.83978 2.91989,0 0,5.83979 2.91989,0 0,-8.75968 -2.91989,0 0,-2.91989 2.91989,0 0,-8.75966 -5.83978,0 0,2.91989 -2.91989,0 0,5.83977 -2.9199,0 0,-2.91989 -2.91988,0 0,-2.91988 2.91988,0 0,-2.91989 -17.51934,0 0,5.83977 -5.83976,0 0,-2.91988 2.91988,0 0,-5.83979 2.91988,0 0,-8.75967 -2.91988,0 0,2.91988 -2.91988,0 0,-5.83977 2.91988,0 0,-2.91988 2.91988,0 0,-5.83978 -5.83976,0 m 14.59942,0 0,20.43922 20.43925,0 0,-20.43922 -20.43925,0 z"
             style="fill:#000000;stroke:none"
             inkscape:connector-curvature="0" />
          <path
             id="path5678"
             d="m 212.85521,870.76556 0,14.59944 14.59947,0 0,-14.59944 -14.59947,0 z"
             style="fill:#ffffff;stroke:none"
             inkscape:connector-curvature="0" />
          <path
             id="path5680"
             d="m 256.65358,870.76556 0,5.83977 2.9199,0 0,-5.83977 -2.9199,0 z"
             style="fill:#000000;stroke:none"
             inkscape:connector-curvature="0" />
          <path
             id="path5682"
             d="m 265.41325,870.76556 0,14.59944 14.59945,0 0,-14.59944 -14.59945,0 z"
             style="fill:#ffffff;stroke:none"
             inkscape:connector-curvature="0" />
          <path
             id="path5684"
             d="m 215.77512,873.68545 0,8.75965 8.75967,0 0,-8.75965 -8.75967,0 m 52.55802,0 0,8.75965 8.75967,0 0,-8.75965 -8.75967,0 z"
             style="fill:#000000;stroke:none"
             inkscape:connector-curvature="0" />
          <path
             id="path5686"
             d="m 242.05413,882.4451 0,5.83979 -2.91989,0 0,-2.91989 -2.9199,0 0,2.91989 2.9199,0 0,5.83979 -2.9199,0 0,2.91987 5.83979,0 0,2.9199 2.91987,0 0,-5.83977 -2.91987,0 0,-2.91989 5.83979,0 0,-2.91989 2.91988,0 0,-2.9199 -2.91988,0 0,2.9199 -2.91992,0 0,-5.8398 -2.91987,0 z"
             style="fill:#ffffff;stroke:none"
             inkscape:connector-curvature="0" />
          <path
             id="path5688"
             d="m 256.65358,882.4451 0,5.83979 2.9199,0 0,-5.83979 -2.9199,0 z"
             style="fill:#000000;stroke:none"
             inkscape:connector-curvature="0" />
          <path
             id="path5690"
             d="m 212.85521,894.12468 0,2.91987 2.91991,0 0,-2.91987 -2.91991,0 m 11.67958,0 0,2.91987 5.83979,0 0,-2.91987 -5.83979,0 m 35.03869,0 0,2.91987 2.91986,0 0,-2.91987 -2.91986,0 m 17.51933,0 0,5.83977 2.91989,0 0,-5.83977 -2.91989,0 m -49.63813,5.83977 0,2.91989 -2.91989,0 0,2.91989 2.91989,0 0,2.9199 2.91989,0 0,-2.9199 -2.91989,0 0,-2.91989 2.91989,0 0,-2.91989 -2.91989,0 m 8.75966,0 0,2.91989 2.9199,0 0,-2.91989 -2.9199,0 m 11.67958,0 0,2.91989 -5.83979,0 0,5.83979 -2.91989,0 0,-2.9199 -5.83979,0 0,2.9199 2.91989,0 0,2.91989 5.83979,0 0,2.91988 5.83979,0 0,-2.91988 2.91988,0 0,5.83977 -2.91988,0 0,2.91991 5.83976,0 0,2.91988 2.9199,0 0,-2.91988 -2.9199,0 0,-11.67957 -5.83976,0 0,-5.83979 2.91988,0 0,-2.91989 -2.91988,0 m 5.83976,0 0,2.91989 2.9199,0 0,2.91989 2.91989,0 0,2.9199 -2.91989,0 0,5.83977 2.91989,0 0,-5.83977 2.91987,0 0,2.91989 2.91991,0 0,2.91988 2.91989,0 0,-2.91988 -2.91989,0 0,-2.91989 -2.91991,0 0,-5.83979 -2.91987,0 0,-2.91989 -5.83979,0 z"
             style="fill:#ffffff;stroke:none"
             inkscape:connector-curvature="0" />
          <path
             id="path5692"
             d="m 242.05413,908.72413 0,2.91989 2.91987,0 0,-2.91989 -2.91987,0 m -14.59945,5.83977 0,2.91989 2.9199,0 0,-2.91989 -2.9199,0 z"
             style="fill:#000000;stroke:none"
             inkscape:connector-curvature="0" />
          <path
             id="path5694"
             d="m 259.57348,917.48379 0,8.75967 8.75966,0 0,-8.75967 -8.75966,0 z"
             style="fill:#ffffff;stroke:none"
             inkscape:connector-curvature="0" />
          <path
             id="path5696"
             d="m 209.93533,920.4037 0,20.43921 20.43924,0 0,-20.43921 -20.43924,0 m 52.55801,0 0,2.91988 2.91991,0 0,-2.91988 -2.91991,0 z"
             style="fill:#000000;stroke:none"
             inkscape:connector-curvature="0" />
          <path
             id="path5698"
             d="m 271.25302,920.4037 0,2.91988 2.9199,0 0,5.83978 2.91989,0 0,-2.9199 2.91989,0 0,-5.83976 -2.91989,0 0,2.91988 -2.91989,0 0,-2.91988 -2.9199,0 m -58.39781,2.91988 0,14.59945 14.59947,0 0,-14.59945 -14.59947,0 z"
             style="fill:#ffffff;stroke:none"
             inkscape:connector-curvature="0" />
          <path
             id="path5700"
             d="m 233.29445,923.32358 0,2.91988 2.9199,0 0,-2.91988 -2.9199,0 z"
             style="fill:#000000;stroke:none"
             inkscape:connector-curvature="0" />
          <path
             id="path5702"
             d="m 247.89392,923.32358 0,2.91988 2.91988,0 0,-2.91988 -2.91988,0 z"
             style="fill:#ffffff;stroke:none"
             inkscape:connector-curvature="0" />
          <path
             id="path5704"
             d="m 215.77512,926.24346 0,8.75967 8.75967,0 0,-8.75967 -8.75967,0 z"
             style="fill:#000000;stroke:none"
             inkscape:connector-curvature="0" />
          <path
             id="path5706"
             d="m 253.73368,929.16336 0,2.91986 2.9199,0 0,-2.91986 -2.9199,0 m -14.59944,2.91986 0,2.91991 2.91989,0 0,-2.91991 -2.91989,0 z"
             style="fill:#ffffff;stroke:none"
             inkscape:connector-curvature="0" />
          <path
             id="path5708"
             d="m 268.33314,932.08322 0,2.91991 2.91988,0 0,-2.91991 -2.91988,0 m 11.67957,5.83981 0,2.91988 2.91989,0 0,-2.91988 -2.91989,0 z"
             style="fill:#000000;stroke:none"
             inkscape:connector-curvature="0" />
        </g>
      </g>
    </g>
  </g>
</svg>
